<?xml version="1.0" standalone="no"?>
<!DOCTYPE svg PUBLIC "-//W3C//DTD SVG 20010904//EN"
 "http://www.w3.org/TR/2001/REC-SVG-20010904/DTD/svg10.dtd">
<svg version="1.0" xmlns="http://www.w3.org/2000/svg"
 width="560.000000pt" height="560.000000pt" viewBox="0 0 560.000000 560.000000"
 preserveAspectRatio="xMidYMid meet">
<metadata>
Created by potrace 1.14, written by Peter Selinger 2001-2017
</metadata>
<g transform="translate(0.000000,560.000000) scale(0.100000,-0.100000)"
fill="#000000" stroke="none">
<path d="M2314 5593 c-33 -24 -34 -47 -34 -953 0 -972 -2 -942 52 -967 29 -13
94 -7 131 13 15 7 42 22 60 31 72 37 469 268 740 432 93 55 172 101 177 101 4
0 10 3 12 8 2 4 89 58 193 121 276 165 345 211 347 229 3 33 -2 54 -16 67 -13
13 -163 105 -172 105 -2 0 -23 12 -47 27 -23 14 -116 69 -207 121 -91 52 -268
154 -395 227 -126 73 -247 142 -267 154 -21 11 -53 29 -70 40 -348 201 -423
242 -455 246 -21 3 -43 2 -49 -2z"/>
<path d="M3917 3989 c-29 -15 -173 -97 -322 -184 -148 -87 -286 -166 -305
-177 -19 -11 -100 -59 -180 -106 -80 -47 -194 -114 -255 -149 -60 -36 -117
-68 -125 -73 -224 -133 -289 -171 -360 -213 -47 -27 -98 -57 -115 -67 -16 -9
-154 -90 -305 -180 -151 -90 -310 -183 -352 -208 -136 -80 -132 -105 35 -203
67 -39 210 -123 317 -187 107 -64 209 -123 225 -131 17 -9 47 -27 67 -40 l38
-23 0 -101 c0 -56 1 -505 2 -997 l2 -895 30 -28 c27 -26 35 -28 81 -23 59 6
197 60 445 174 164 75 442 249 590 368 107 86 289 267 363 360 141 179 198
295 247 504 27 118 27 115 35 181 4 29 11 76 15 104 5 27 9 540 9 1138 1 1188
4 1133 -54 1171 -32 21 -66 17 -128 -15z"/>
</g>
</svg>
